<mxfile host="Electron" agent="Mozilla/5.0 (Windows NT 10.0; Win64; x64) AppleWebKit/537.36 (KHTML, like Gecko) draw.io/26.0.9 Chrome/128.0.6613.186 Electron/32.2.5 Safari/537.36" version="26.0.9">
  <diagram name="Page-1" id="mB4N_UbFpeSegwJOBOTm">
    <mxGraphModel dx="1569" dy="1171" grid="1" gridSize="10" guides="1" tooltips="1" connect="1" arrows="1" fold="1" page="1" pageScale="1" pageWidth="850" pageHeight="1100" math="0" shadow="0">
      <root>
        <mxCell id="0" />
        <mxCell id="1" parent="0" />
        <mxCell id="svZd6xKUhVE3Qj8_Ypbx-1" value="&lt;font style=&quot;font-size: 20px;&quot;&gt;&lt;b&gt;Data Mart ( Star Schema)&lt;/b&gt;&lt;/font&gt;" style="text;html=1;align=center;verticalAlign=middle;whiteSpace=wrap;rounded=0;" vertex="1" parent="1">
          <mxGeometry x="30" y="40" width="270" height="30" as="geometry" />
        </mxCell>
        <mxCell id="svZd6xKUhVE3Qj8_Ypbx-2" value="gold.dim_customers" style="shape=table;startSize=30;container=1;collapsible=1;childLayout=tableLayout;fixedRows=1;rowLines=0;fontStyle=1;align=center;resizeLast=1;html=1;rounded=1;fillColor=#fff2cc;strokeColor=#d6b656;fontSize=18;arcSize=12;" vertex="1" parent="1">
          <mxGeometry x="180" y="140" width="320" height="690" as="geometry" />
        </mxCell>
        <mxCell id="svZd6xKUhVE3Qj8_Ypbx-3" value="" style="shape=tableRow;horizontal=0;startSize=0;swimlaneHead=0;swimlaneBody=0;fillColor=none;collapsible=0;dropTarget=0;points=[[0,0.5],[1,0.5]];portConstraint=eastwest;top=0;left=0;right=0;bottom=1;fontSize=18;" vertex="1" parent="svZd6xKUhVE3Qj8_Ypbx-2">
          <mxGeometry y="30" width="320" height="66" as="geometry" />
        </mxCell>
        <mxCell id="svZd6xKUhVE3Qj8_Ypbx-4" value="&lt;span style=&quot;font-weight: normal;&quot;&gt;PK&lt;/span&gt;" style="shape=partialRectangle;connectable=0;fillColor=none;top=0;left=0;bottom=0;right=0;fontStyle=1;overflow=hidden;whiteSpace=wrap;html=1;fontSize=18;" vertex="1" parent="svZd6xKUhVE3Qj8_Ypbx-3">
          <mxGeometry width="30" height="66" as="geometry">
            <mxRectangle width="30" height="66" as="alternateBounds" />
          </mxGeometry>
        </mxCell>
        <mxCell id="svZd6xKUhVE3Qj8_Ypbx-5" value="&lt;span style=&quot;font-weight: normal;&quot;&gt;customer_key&lt;/span&gt;" style="shape=partialRectangle;connectable=0;fillColor=none;top=0;left=0;bottom=0;right=0;align=left;spacingLeft=6;fontStyle=5;overflow=hidden;whiteSpace=wrap;html=1;fontSize=18;" vertex="1" parent="svZd6xKUhVE3Qj8_Ypbx-3">
          <mxGeometry x="30" width="290" height="66" as="geometry">
            <mxRectangle width="290" height="66" as="alternateBounds" />
          </mxGeometry>
        </mxCell>
        <mxCell id="svZd6xKUhVE3Qj8_Ypbx-6" value="" style="shape=tableRow;horizontal=0;startSize=0;swimlaneHead=0;swimlaneBody=0;fillColor=none;collapsible=0;dropTarget=0;points=[[0,0.5],[1,0.5]];portConstraint=eastwest;top=0;left=0;right=0;bottom=0;fontSize=18;" vertex="1" parent="svZd6xKUhVE3Qj8_Ypbx-2">
          <mxGeometry y="96" width="320" height="66" as="geometry" />
        </mxCell>
        <mxCell id="svZd6xKUhVE3Qj8_Ypbx-7" value="" style="shape=partialRectangle;connectable=0;fillColor=none;top=0;left=0;bottom=0;right=0;editable=1;overflow=hidden;whiteSpace=wrap;html=1;fontSize=18;" vertex="1" parent="svZd6xKUhVE3Qj8_Ypbx-6">
          <mxGeometry width="30" height="66" as="geometry">
            <mxRectangle width="30" height="66" as="alternateBounds" />
          </mxGeometry>
        </mxCell>
        <mxCell id="svZd6xKUhVE3Qj8_Ypbx-8" value="customer_id" style="shape=partialRectangle;connectable=0;fillColor=none;top=0;left=0;bottom=0;right=0;align=left;spacingLeft=6;overflow=hidden;whiteSpace=wrap;html=1;fontSize=18;" vertex="1" parent="svZd6xKUhVE3Qj8_Ypbx-6">
          <mxGeometry x="30" width="290" height="66" as="geometry">
            <mxRectangle width="290" height="66" as="alternateBounds" />
          </mxGeometry>
        </mxCell>
        <mxCell id="svZd6xKUhVE3Qj8_Ypbx-9" value="" style="shape=tableRow;horizontal=0;startSize=0;swimlaneHead=0;swimlaneBody=0;fillColor=none;collapsible=0;dropTarget=0;points=[[0,0.5],[1,0.5]];portConstraint=eastwest;top=0;left=0;right=0;bottom=0;fontSize=18;" vertex="1" parent="svZd6xKUhVE3Qj8_Ypbx-2">
          <mxGeometry y="162" width="320" height="66" as="geometry" />
        </mxCell>
        <mxCell id="svZd6xKUhVE3Qj8_Ypbx-10" value="" style="shape=partialRectangle;connectable=0;fillColor=none;top=0;left=0;bottom=0;right=0;editable=1;overflow=hidden;whiteSpace=wrap;html=1;fontSize=18;" vertex="1" parent="svZd6xKUhVE3Qj8_Ypbx-9">
          <mxGeometry width="30" height="66" as="geometry">
            <mxRectangle width="30" height="66" as="alternateBounds" />
          </mxGeometry>
        </mxCell>
        <mxCell id="svZd6xKUhVE3Qj8_Ypbx-11" value="customer_number" style="shape=partialRectangle;connectable=0;fillColor=none;top=0;left=0;bottom=0;right=0;align=left;spacingLeft=6;overflow=hidden;whiteSpace=wrap;html=1;fontSize=18;" vertex="1" parent="svZd6xKUhVE3Qj8_Ypbx-9">
          <mxGeometry x="30" width="290" height="66" as="geometry">
            <mxRectangle width="290" height="66" as="alternateBounds" />
          </mxGeometry>
        </mxCell>
        <mxCell id="svZd6xKUhVE3Qj8_Ypbx-12" value="" style="shape=tableRow;horizontal=0;startSize=0;swimlaneHead=0;swimlaneBody=0;fillColor=none;collapsible=0;dropTarget=0;points=[[0,0.5],[1,0.5]];portConstraint=eastwest;top=0;left=0;right=0;bottom=0;fontSize=18;" vertex="1" parent="svZd6xKUhVE3Qj8_Ypbx-2">
          <mxGeometry y="228" width="320" height="66" as="geometry" />
        </mxCell>
        <mxCell id="svZd6xKUhVE3Qj8_Ypbx-13" value="" style="shape=partialRectangle;connectable=0;fillColor=none;top=0;left=0;bottom=0;right=0;editable=1;overflow=hidden;whiteSpace=wrap;html=1;fontSize=18;" vertex="1" parent="svZd6xKUhVE3Qj8_Ypbx-12">
          <mxGeometry width="30" height="66" as="geometry">
            <mxRectangle width="30" height="66" as="alternateBounds" />
          </mxGeometry>
        </mxCell>
        <mxCell id="svZd6xKUhVE3Qj8_Ypbx-14" value="first_name" style="shape=partialRectangle;connectable=0;fillColor=none;top=0;left=0;bottom=0;right=0;align=left;spacingLeft=6;overflow=hidden;whiteSpace=wrap;html=1;fontSize=18;" vertex="1" parent="svZd6xKUhVE3Qj8_Ypbx-12">
          <mxGeometry x="30" width="290" height="66" as="geometry">
            <mxRectangle width="290" height="66" as="alternateBounds" />
          </mxGeometry>
        </mxCell>
        <mxCell id="svZd6xKUhVE3Qj8_Ypbx-15" value="" style="shape=tableRow;horizontal=0;startSize=0;swimlaneHead=0;swimlaneBody=0;fillColor=none;collapsible=0;dropTarget=0;points=[[0,0.5],[1,0.5]];portConstraint=eastwest;top=0;left=0;right=0;bottom=0;fontSize=18;" vertex="1" parent="svZd6xKUhVE3Qj8_Ypbx-2">
          <mxGeometry y="294" width="320" height="66" as="geometry" />
        </mxCell>
        <mxCell id="svZd6xKUhVE3Qj8_Ypbx-16" value="" style="shape=partialRectangle;connectable=0;fillColor=none;top=0;left=0;bottom=0;right=0;editable=1;overflow=hidden;whiteSpace=wrap;html=1;fontSize=18;" vertex="1" parent="svZd6xKUhVE3Qj8_Ypbx-15">
          <mxGeometry width="30" height="66" as="geometry">
            <mxRectangle width="30" height="66" as="alternateBounds" />
          </mxGeometry>
        </mxCell>
        <mxCell id="svZd6xKUhVE3Qj8_Ypbx-17" value="last_name" style="shape=partialRectangle;connectable=0;fillColor=none;top=0;left=0;bottom=0;right=0;align=left;spacingLeft=6;overflow=hidden;whiteSpace=wrap;html=1;fontSize=18;" vertex="1" parent="svZd6xKUhVE3Qj8_Ypbx-15">
          <mxGeometry x="30" width="290" height="66" as="geometry">
            <mxRectangle width="290" height="66" as="alternateBounds" />
          </mxGeometry>
        </mxCell>
        <mxCell id="svZd6xKUhVE3Qj8_Ypbx-18" value="" style="shape=tableRow;horizontal=0;startSize=0;swimlaneHead=0;swimlaneBody=0;fillColor=none;collapsible=0;dropTarget=0;points=[[0,0.5],[1,0.5]];portConstraint=eastwest;top=0;left=0;right=0;bottom=0;fontSize=18;" vertex="1" parent="svZd6xKUhVE3Qj8_Ypbx-2">
          <mxGeometry y="360" width="320" height="66" as="geometry" />
        </mxCell>
        <mxCell id="svZd6xKUhVE3Qj8_Ypbx-19" value="" style="shape=partialRectangle;connectable=0;fillColor=none;top=0;left=0;bottom=0;right=0;editable=1;overflow=hidden;whiteSpace=wrap;html=1;fontSize=18;" vertex="1" parent="svZd6xKUhVE3Qj8_Ypbx-18">
          <mxGeometry width="30" height="66" as="geometry">
            <mxRectangle width="30" height="66" as="alternateBounds" />
          </mxGeometry>
        </mxCell>
        <mxCell id="svZd6xKUhVE3Qj8_Ypbx-20" value="country" style="shape=partialRectangle;connectable=0;fillColor=none;top=0;left=0;bottom=0;right=0;align=left;spacingLeft=6;overflow=hidden;whiteSpace=wrap;html=1;fontSize=18;" vertex="1" parent="svZd6xKUhVE3Qj8_Ypbx-18">
          <mxGeometry x="30" width="290" height="66" as="geometry">
            <mxRectangle width="290" height="66" as="alternateBounds" />
          </mxGeometry>
        </mxCell>
        <mxCell id="svZd6xKUhVE3Qj8_Ypbx-21" value="" style="shape=tableRow;horizontal=0;startSize=0;swimlaneHead=0;swimlaneBody=0;fillColor=none;collapsible=0;dropTarget=0;points=[[0,0.5],[1,0.5]];portConstraint=eastwest;top=0;left=0;right=0;bottom=0;fontSize=18;" vertex="1" parent="svZd6xKUhVE3Qj8_Ypbx-2">
          <mxGeometry y="426" width="320" height="66" as="geometry" />
        </mxCell>
        <mxCell id="svZd6xKUhVE3Qj8_Ypbx-22" value="" style="shape=partialRectangle;connectable=0;fillColor=none;top=0;left=0;bottom=0;right=0;editable=1;overflow=hidden;whiteSpace=wrap;html=1;fontSize=18;" vertex="1" parent="svZd6xKUhVE3Qj8_Ypbx-21">
          <mxGeometry width="30" height="66" as="geometry">
            <mxRectangle width="30" height="66" as="alternateBounds" />
          </mxGeometry>
        </mxCell>
        <mxCell id="svZd6xKUhVE3Qj8_Ypbx-23" value="marital_status" style="shape=partialRectangle;connectable=0;fillColor=none;top=0;left=0;bottom=0;right=0;align=left;spacingLeft=6;overflow=hidden;whiteSpace=wrap;html=1;fontSize=18;" vertex="1" parent="svZd6xKUhVE3Qj8_Ypbx-21">
          <mxGeometry x="30" width="290" height="66" as="geometry">
            <mxRectangle width="290" height="66" as="alternateBounds" />
          </mxGeometry>
        </mxCell>
        <mxCell id="svZd6xKUhVE3Qj8_Ypbx-24" value="" style="shape=tableRow;horizontal=0;startSize=0;swimlaneHead=0;swimlaneBody=0;fillColor=none;collapsible=0;dropTarget=0;points=[[0,0.5],[1,0.5]];portConstraint=eastwest;top=0;left=0;right=0;bottom=0;fontSize=18;" vertex="1" parent="svZd6xKUhVE3Qj8_Ypbx-2">
          <mxGeometry y="492" width="320" height="66" as="geometry" />
        </mxCell>
        <mxCell id="svZd6xKUhVE3Qj8_Ypbx-25" value="" style="shape=partialRectangle;connectable=0;fillColor=none;top=0;left=0;bottom=0;right=0;editable=1;overflow=hidden;whiteSpace=wrap;html=1;fontSize=18;" vertex="1" parent="svZd6xKUhVE3Qj8_Ypbx-24">
          <mxGeometry width="30" height="66" as="geometry">
            <mxRectangle width="30" height="66" as="alternateBounds" />
          </mxGeometry>
        </mxCell>
        <mxCell id="svZd6xKUhVE3Qj8_Ypbx-26" value="gender" style="shape=partialRectangle;connectable=0;fillColor=none;top=0;left=0;bottom=0;right=0;align=left;spacingLeft=6;overflow=hidden;whiteSpace=wrap;html=1;fontSize=18;" vertex="1" parent="svZd6xKUhVE3Qj8_Ypbx-24">
          <mxGeometry x="30" width="290" height="66" as="geometry">
            <mxRectangle width="290" height="66" as="alternateBounds" />
          </mxGeometry>
        </mxCell>
        <mxCell id="svZd6xKUhVE3Qj8_Ypbx-27" value="" style="shape=tableRow;horizontal=0;startSize=0;swimlaneHead=0;swimlaneBody=0;fillColor=none;collapsible=0;dropTarget=0;points=[[0,0.5],[1,0.5]];portConstraint=eastwest;top=0;left=0;right=0;bottom=0;fontSize=18;" vertex="1" parent="svZd6xKUhVE3Qj8_Ypbx-2">
          <mxGeometry y="558" width="320" height="66" as="geometry" />
        </mxCell>
        <mxCell id="svZd6xKUhVE3Qj8_Ypbx-28" value="" style="shape=partialRectangle;connectable=0;fillColor=none;top=0;left=0;bottom=0;right=0;editable=1;overflow=hidden;whiteSpace=wrap;html=1;fontSize=18;" vertex="1" parent="svZd6xKUhVE3Qj8_Ypbx-27">
          <mxGeometry width="30" height="66" as="geometry">
            <mxRectangle width="30" height="66" as="alternateBounds" />
          </mxGeometry>
        </mxCell>
        <mxCell id="svZd6xKUhVE3Qj8_Ypbx-29" value="birthdate" style="shape=partialRectangle;connectable=0;fillColor=none;top=0;left=0;bottom=0;right=0;align=left;spacingLeft=6;overflow=hidden;whiteSpace=wrap;html=1;fontSize=18;" vertex="1" parent="svZd6xKUhVE3Qj8_Ypbx-27">
          <mxGeometry x="30" width="290" height="66" as="geometry">
            <mxRectangle width="290" height="66" as="alternateBounds" />
          </mxGeometry>
        </mxCell>
        <mxCell id="svZd6xKUhVE3Qj8_Ypbx-30" value="" style="shape=tableRow;horizontal=0;startSize=0;swimlaneHead=0;swimlaneBody=0;fillColor=none;collapsible=0;dropTarget=0;points=[[0,0.5],[1,0.5]];portConstraint=eastwest;top=0;left=0;right=0;bottom=0;fontSize=18;" vertex="1" parent="svZd6xKUhVE3Qj8_Ypbx-2">
          <mxGeometry y="624" width="320" height="66" as="geometry" />
        </mxCell>
        <mxCell id="svZd6xKUhVE3Qj8_Ypbx-31" value="" style="shape=partialRectangle;connectable=0;fillColor=none;top=0;left=0;bottom=0;right=0;editable=1;overflow=hidden;whiteSpace=wrap;html=1;fontSize=18;" vertex="1" parent="svZd6xKUhVE3Qj8_Ypbx-30">
          <mxGeometry width="30" height="66" as="geometry">
            <mxRectangle width="30" height="66" as="alternateBounds" />
          </mxGeometry>
        </mxCell>
        <mxCell id="svZd6xKUhVE3Qj8_Ypbx-32" value="country" style="shape=partialRectangle;connectable=0;fillColor=none;top=0;left=0;bottom=0;right=0;align=left;spacingLeft=6;overflow=hidden;whiteSpace=wrap;html=1;fontSize=18;" vertex="1" parent="svZd6xKUhVE3Qj8_Ypbx-30">
          <mxGeometry x="30" width="290" height="66" as="geometry">
            <mxRectangle width="290" height="66" as="alternateBounds" />
          </mxGeometry>
        </mxCell>
        <mxCell id="svZd6xKUhVE3Qj8_Ypbx-66" value="gold.dim_products" style="shape=table;startSize=30;container=1;collapsible=1;childLayout=tableLayout;fixedRows=1;rowLines=0;fontStyle=1;align=center;resizeLast=1;html=1;rounded=1;fillColor=#fff2cc;strokeColor=#d6b656;fontSize=18;arcSize=12;" vertex="1" parent="1">
          <mxGeometry x="1210" y="140" width="320" height="756" as="geometry" />
        </mxCell>
        <mxCell id="svZd6xKUhVE3Qj8_Ypbx-67" value="" style="shape=tableRow;horizontal=0;startSize=0;swimlaneHead=0;swimlaneBody=0;fillColor=none;collapsible=0;dropTarget=0;points=[[0,0.5],[1,0.5]];portConstraint=eastwest;top=0;left=0;right=0;bottom=1;fontSize=18;" vertex="1" parent="svZd6xKUhVE3Qj8_Ypbx-66">
          <mxGeometry y="30" width="320" height="66" as="geometry" />
        </mxCell>
        <mxCell id="svZd6xKUhVE3Qj8_Ypbx-68" value="&lt;span style=&quot;font-weight: normal;&quot;&gt;PK&lt;/span&gt;" style="shape=partialRectangle;connectable=0;fillColor=none;top=0;left=0;bottom=0;right=0;fontStyle=1;overflow=hidden;whiteSpace=wrap;html=1;fontSize=18;" vertex="1" parent="svZd6xKUhVE3Qj8_Ypbx-67">
          <mxGeometry width="30" height="66" as="geometry">
            <mxRectangle width="30" height="66" as="alternateBounds" />
          </mxGeometry>
        </mxCell>
        <mxCell id="svZd6xKUhVE3Qj8_Ypbx-69" value="&lt;span style=&quot;font-weight: normal;&quot;&gt;product_key&lt;/span&gt;" style="shape=partialRectangle;connectable=0;fillColor=none;top=0;left=0;bottom=0;right=0;align=left;spacingLeft=6;fontStyle=5;overflow=hidden;whiteSpace=wrap;html=1;fontSize=18;" vertex="1" parent="svZd6xKUhVE3Qj8_Ypbx-67">
          <mxGeometry x="30" width="290" height="66" as="geometry">
            <mxRectangle width="290" height="66" as="alternateBounds" />
          </mxGeometry>
        </mxCell>
        <mxCell id="svZd6xKUhVE3Qj8_Ypbx-70" value="" style="shape=tableRow;horizontal=0;startSize=0;swimlaneHead=0;swimlaneBody=0;fillColor=none;collapsible=0;dropTarget=0;points=[[0,0.5],[1,0.5]];portConstraint=eastwest;top=0;left=0;right=0;bottom=0;fontSize=18;" vertex="1" parent="svZd6xKUhVE3Qj8_Ypbx-66">
          <mxGeometry y="96" width="320" height="66" as="geometry" />
        </mxCell>
        <mxCell id="svZd6xKUhVE3Qj8_Ypbx-71" value="" style="shape=partialRectangle;connectable=0;fillColor=none;top=0;left=0;bottom=0;right=0;editable=1;overflow=hidden;whiteSpace=wrap;html=1;fontSize=18;" vertex="1" parent="svZd6xKUhVE3Qj8_Ypbx-70">
          <mxGeometry width="30" height="66" as="geometry">
            <mxRectangle width="30" height="66" as="alternateBounds" />
          </mxGeometry>
        </mxCell>
        <mxCell id="svZd6xKUhVE3Qj8_Ypbx-72" value="product_id" style="shape=partialRectangle;connectable=0;fillColor=none;top=0;left=0;bottom=0;right=0;align=left;spacingLeft=6;overflow=hidden;whiteSpace=wrap;html=1;fontSize=18;" vertex="1" parent="svZd6xKUhVE3Qj8_Ypbx-70">
          <mxGeometry x="30" width="290" height="66" as="geometry">
            <mxRectangle width="290" height="66" as="alternateBounds" />
          </mxGeometry>
        </mxCell>
        <mxCell id="svZd6xKUhVE3Qj8_Ypbx-73" value="" style="shape=tableRow;horizontal=0;startSize=0;swimlaneHead=0;swimlaneBody=0;fillColor=none;collapsible=0;dropTarget=0;points=[[0,0.5],[1,0.5]];portConstraint=eastwest;top=0;left=0;right=0;bottom=0;fontSize=18;" vertex="1" parent="svZd6xKUhVE3Qj8_Ypbx-66">
          <mxGeometry y="162" width="320" height="66" as="geometry" />
        </mxCell>
        <mxCell id="svZd6xKUhVE3Qj8_Ypbx-74" value="" style="shape=partialRectangle;connectable=0;fillColor=none;top=0;left=0;bottom=0;right=0;editable=1;overflow=hidden;whiteSpace=wrap;html=1;fontSize=18;" vertex="1" parent="svZd6xKUhVE3Qj8_Ypbx-73">
          <mxGeometry width="30" height="66" as="geometry">
            <mxRectangle width="30" height="66" as="alternateBounds" />
          </mxGeometry>
        </mxCell>
        <mxCell id="svZd6xKUhVE3Qj8_Ypbx-75" value="product_number" style="shape=partialRectangle;connectable=0;fillColor=none;top=0;left=0;bottom=0;right=0;align=left;spacingLeft=6;overflow=hidden;whiteSpace=wrap;html=1;fontSize=18;" vertex="1" parent="svZd6xKUhVE3Qj8_Ypbx-73">
          <mxGeometry x="30" width="290" height="66" as="geometry">
            <mxRectangle width="290" height="66" as="alternateBounds" />
          </mxGeometry>
        </mxCell>
        <mxCell id="svZd6xKUhVE3Qj8_Ypbx-76" value="" style="shape=tableRow;horizontal=0;startSize=0;swimlaneHead=0;swimlaneBody=0;fillColor=none;collapsible=0;dropTarget=0;points=[[0,0.5],[1,0.5]];portConstraint=eastwest;top=0;left=0;right=0;bottom=0;fontSize=18;" vertex="1" parent="svZd6xKUhVE3Qj8_Ypbx-66">
          <mxGeometry y="228" width="320" height="66" as="geometry" />
        </mxCell>
        <mxCell id="svZd6xKUhVE3Qj8_Ypbx-77" value="" style="shape=partialRectangle;connectable=0;fillColor=none;top=0;left=0;bottom=0;right=0;editable=1;overflow=hidden;whiteSpace=wrap;html=1;fontSize=18;" vertex="1" parent="svZd6xKUhVE3Qj8_Ypbx-76">
          <mxGeometry width="30" height="66" as="geometry">
            <mxRectangle width="30" height="66" as="alternateBounds" />
          </mxGeometry>
        </mxCell>
        <mxCell id="svZd6xKUhVE3Qj8_Ypbx-78" value="product_name" style="shape=partialRectangle;connectable=0;fillColor=none;top=0;left=0;bottom=0;right=0;align=left;spacingLeft=6;overflow=hidden;whiteSpace=wrap;html=1;fontSize=18;" vertex="1" parent="svZd6xKUhVE3Qj8_Ypbx-76">
          <mxGeometry x="30" width="290" height="66" as="geometry">
            <mxRectangle width="290" height="66" as="alternateBounds" />
          </mxGeometry>
        </mxCell>
        <mxCell id="svZd6xKUhVE3Qj8_Ypbx-79" value="" style="shape=tableRow;horizontal=0;startSize=0;swimlaneHead=0;swimlaneBody=0;fillColor=none;collapsible=0;dropTarget=0;points=[[0,0.5],[1,0.5]];portConstraint=eastwest;top=0;left=0;right=0;bottom=0;fontSize=18;" vertex="1" parent="svZd6xKUhVE3Qj8_Ypbx-66">
          <mxGeometry y="294" width="320" height="66" as="geometry" />
        </mxCell>
        <mxCell id="svZd6xKUhVE3Qj8_Ypbx-80" value="" style="shape=partialRectangle;connectable=0;fillColor=none;top=0;left=0;bottom=0;right=0;editable=1;overflow=hidden;whiteSpace=wrap;html=1;fontSize=18;" vertex="1" parent="svZd6xKUhVE3Qj8_Ypbx-79">
          <mxGeometry width="30" height="66" as="geometry">
            <mxRectangle width="30" height="66" as="alternateBounds" />
          </mxGeometry>
        </mxCell>
        <mxCell id="svZd6xKUhVE3Qj8_Ypbx-81" value="category_id" style="shape=partialRectangle;connectable=0;fillColor=none;top=0;left=0;bottom=0;right=0;align=left;spacingLeft=6;overflow=hidden;whiteSpace=wrap;html=1;fontSize=18;" vertex="1" parent="svZd6xKUhVE3Qj8_Ypbx-79">
          <mxGeometry x="30" width="290" height="66" as="geometry">
            <mxRectangle width="290" height="66" as="alternateBounds" />
          </mxGeometry>
        </mxCell>
        <mxCell id="svZd6xKUhVE3Qj8_Ypbx-82" value="" style="shape=tableRow;horizontal=0;startSize=0;swimlaneHead=0;swimlaneBody=0;fillColor=none;collapsible=0;dropTarget=0;points=[[0,0.5],[1,0.5]];portConstraint=eastwest;top=0;left=0;right=0;bottom=0;fontSize=18;" vertex="1" parent="svZd6xKUhVE3Qj8_Ypbx-66">
          <mxGeometry y="360" width="320" height="66" as="geometry" />
        </mxCell>
        <mxCell id="svZd6xKUhVE3Qj8_Ypbx-83" value="" style="shape=partialRectangle;connectable=0;fillColor=none;top=0;left=0;bottom=0;right=0;editable=1;overflow=hidden;whiteSpace=wrap;html=1;fontSize=18;" vertex="1" parent="svZd6xKUhVE3Qj8_Ypbx-82">
          <mxGeometry width="30" height="66" as="geometry">
            <mxRectangle width="30" height="66" as="alternateBounds" />
          </mxGeometry>
        </mxCell>
        <mxCell id="svZd6xKUhVE3Qj8_Ypbx-84" value="category" style="shape=partialRectangle;connectable=0;fillColor=none;top=0;left=0;bottom=0;right=0;align=left;spacingLeft=6;overflow=hidden;whiteSpace=wrap;html=1;fontSize=18;" vertex="1" parent="svZd6xKUhVE3Qj8_Ypbx-82">
          <mxGeometry x="30" width="290" height="66" as="geometry">
            <mxRectangle width="290" height="66" as="alternateBounds" />
          </mxGeometry>
        </mxCell>
        <mxCell id="svZd6xKUhVE3Qj8_Ypbx-85" value="" style="shape=tableRow;horizontal=0;startSize=0;swimlaneHead=0;swimlaneBody=0;fillColor=none;collapsible=0;dropTarget=0;points=[[0,0.5],[1,0.5]];portConstraint=eastwest;top=0;left=0;right=0;bottom=0;fontSize=18;" vertex="1" parent="svZd6xKUhVE3Qj8_Ypbx-66">
          <mxGeometry y="426" width="320" height="66" as="geometry" />
        </mxCell>
        <mxCell id="svZd6xKUhVE3Qj8_Ypbx-86" value="" style="shape=partialRectangle;connectable=0;fillColor=none;top=0;left=0;bottom=0;right=0;editable=1;overflow=hidden;whiteSpace=wrap;html=1;fontSize=18;" vertex="1" parent="svZd6xKUhVE3Qj8_Ypbx-85">
          <mxGeometry width="30" height="66" as="geometry">
            <mxRectangle width="30" height="66" as="alternateBounds" />
          </mxGeometry>
        </mxCell>
        <mxCell id="svZd6xKUhVE3Qj8_Ypbx-87" value="subcategory" style="shape=partialRectangle;connectable=0;fillColor=none;top=0;left=0;bottom=0;right=0;align=left;spacingLeft=6;overflow=hidden;whiteSpace=wrap;html=1;fontSize=18;" vertex="1" parent="svZd6xKUhVE3Qj8_Ypbx-85">
          <mxGeometry x="30" width="290" height="66" as="geometry">
            <mxRectangle width="290" height="66" as="alternateBounds" />
          </mxGeometry>
        </mxCell>
        <mxCell id="svZd6xKUhVE3Qj8_Ypbx-88" value="" style="shape=tableRow;horizontal=0;startSize=0;swimlaneHead=0;swimlaneBody=0;fillColor=none;collapsible=0;dropTarget=0;points=[[0,0.5],[1,0.5]];portConstraint=eastwest;top=0;left=0;right=0;bottom=0;fontSize=18;" vertex="1" parent="svZd6xKUhVE3Qj8_Ypbx-66">
          <mxGeometry y="492" width="320" height="66" as="geometry" />
        </mxCell>
        <mxCell id="svZd6xKUhVE3Qj8_Ypbx-89" value="" style="shape=partialRectangle;connectable=0;fillColor=none;top=0;left=0;bottom=0;right=0;editable=1;overflow=hidden;whiteSpace=wrap;html=1;fontSize=18;" vertex="1" parent="svZd6xKUhVE3Qj8_Ypbx-88">
          <mxGeometry width="30" height="66" as="geometry">
            <mxRectangle width="30" height="66" as="alternateBounds" />
          </mxGeometry>
        </mxCell>
        <mxCell id="svZd6xKUhVE3Qj8_Ypbx-90" value="maintenance" style="shape=partialRectangle;connectable=0;fillColor=none;top=0;left=0;bottom=0;right=0;align=left;spacingLeft=6;overflow=hidden;whiteSpace=wrap;html=1;fontSize=18;" vertex="1" parent="svZd6xKUhVE3Qj8_Ypbx-88">
          <mxGeometry x="30" width="290" height="66" as="geometry">
            <mxRectangle width="290" height="66" as="alternateBounds" />
          </mxGeometry>
        </mxCell>
        <mxCell id="svZd6xKUhVE3Qj8_Ypbx-91" value="" style="shape=tableRow;horizontal=0;startSize=0;swimlaneHead=0;swimlaneBody=0;fillColor=none;collapsible=0;dropTarget=0;points=[[0,0.5],[1,0.5]];portConstraint=eastwest;top=0;left=0;right=0;bottom=0;fontSize=18;" vertex="1" parent="svZd6xKUhVE3Qj8_Ypbx-66">
          <mxGeometry y="558" width="320" height="66" as="geometry" />
        </mxCell>
        <mxCell id="svZd6xKUhVE3Qj8_Ypbx-92" value="" style="shape=partialRectangle;connectable=0;fillColor=none;top=0;left=0;bottom=0;right=0;editable=1;overflow=hidden;whiteSpace=wrap;html=1;fontSize=18;" vertex="1" parent="svZd6xKUhVE3Qj8_Ypbx-91">
          <mxGeometry width="30" height="66" as="geometry">
            <mxRectangle width="30" height="66" as="alternateBounds" />
          </mxGeometry>
        </mxCell>
        <mxCell id="svZd6xKUhVE3Qj8_Ypbx-93" value="cost" style="shape=partialRectangle;connectable=0;fillColor=none;top=0;left=0;bottom=0;right=0;align=left;spacingLeft=6;overflow=hidden;whiteSpace=wrap;html=1;fontSize=18;" vertex="1" parent="svZd6xKUhVE3Qj8_Ypbx-91">
          <mxGeometry x="30" width="290" height="66" as="geometry">
            <mxRectangle width="290" height="66" as="alternateBounds" />
          </mxGeometry>
        </mxCell>
        <mxCell id="svZd6xKUhVE3Qj8_Ypbx-94" value="" style="shape=tableRow;horizontal=0;startSize=0;swimlaneHead=0;swimlaneBody=0;fillColor=none;collapsible=0;dropTarget=0;points=[[0,0.5],[1,0.5]];portConstraint=eastwest;top=0;left=0;right=0;bottom=0;fontSize=18;" vertex="1" parent="svZd6xKUhVE3Qj8_Ypbx-66">
          <mxGeometry y="624" width="320" height="66" as="geometry" />
        </mxCell>
        <mxCell id="svZd6xKUhVE3Qj8_Ypbx-95" value="" style="shape=partialRectangle;connectable=0;fillColor=none;top=0;left=0;bottom=0;right=0;editable=1;overflow=hidden;whiteSpace=wrap;html=1;fontSize=18;" vertex="1" parent="svZd6xKUhVE3Qj8_Ypbx-94">
          <mxGeometry width="30" height="66" as="geometry">
            <mxRectangle width="30" height="66" as="alternateBounds" />
          </mxGeometry>
        </mxCell>
        <mxCell id="svZd6xKUhVE3Qj8_Ypbx-96" value="product_line" style="shape=partialRectangle;connectable=0;fillColor=none;top=0;left=0;bottom=0;right=0;align=left;spacingLeft=6;overflow=hidden;whiteSpace=wrap;html=1;fontSize=18;" vertex="1" parent="svZd6xKUhVE3Qj8_Ypbx-94">
          <mxGeometry x="30" width="290" height="66" as="geometry">
            <mxRectangle width="290" height="66" as="alternateBounds" />
          </mxGeometry>
        </mxCell>
        <mxCell id="svZd6xKUhVE3Qj8_Ypbx-97" value="" style="shape=tableRow;horizontal=0;startSize=0;swimlaneHead=0;swimlaneBody=0;fillColor=none;collapsible=0;dropTarget=0;points=[[0,0.5],[1,0.5]];portConstraint=eastwest;top=0;left=0;right=0;bottom=0;fontSize=18;" vertex="1" parent="svZd6xKUhVE3Qj8_Ypbx-66">
          <mxGeometry y="690" width="320" height="66" as="geometry" />
        </mxCell>
        <mxCell id="svZd6xKUhVE3Qj8_Ypbx-98" value="" style="shape=partialRectangle;connectable=0;fillColor=none;top=0;left=0;bottom=0;right=0;editable=1;overflow=hidden;whiteSpace=wrap;html=1;fontSize=18;" vertex="1" parent="svZd6xKUhVE3Qj8_Ypbx-97">
          <mxGeometry width="30" height="66" as="geometry">
            <mxRectangle width="30" height="66" as="alternateBounds" />
          </mxGeometry>
        </mxCell>
        <mxCell id="svZd6xKUhVE3Qj8_Ypbx-99" value="start_date" style="shape=partialRectangle;connectable=0;fillColor=none;top=0;left=0;bottom=0;right=0;align=left;spacingLeft=6;overflow=hidden;whiteSpace=wrap;html=1;fontSize=18;" vertex="1" parent="svZd6xKUhVE3Qj8_Ypbx-97">
          <mxGeometry x="30" width="290" height="66" as="geometry">
            <mxRectangle width="290" height="66" as="alternateBounds" />
          </mxGeometry>
        </mxCell>
        <mxCell id="svZd6xKUhVE3Qj8_Ypbx-101" value="gold.fact_sales" style="shape=table;startSize=30;container=1;collapsible=1;childLayout=tableLayout;fixedRows=1;rowLines=0;fontStyle=1;align=center;resizeLast=1;html=1;rounded=1;fillColor=#dae8fc;strokeColor=#6c8ebf;fontSize=18;arcSize=12;" vertex="1" parent="1">
          <mxGeometry x="690" y="140" width="330" height="624" as="geometry" />
        </mxCell>
        <mxCell id="svZd6xKUhVE3Qj8_Ypbx-105" value="" style="shape=tableRow;horizontal=0;startSize=0;swimlaneHead=0;swimlaneBody=0;fillColor=none;collapsible=0;dropTarget=0;points=[[0,0.5],[1,0.5]];portConstraint=eastwest;top=0;left=0;right=0;bottom=0;fontSize=18;" vertex="1" parent="svZd6xKUhVE3Qj8_Ypbx-101">
          <mxGeometry y="30" width="330" height="66" as="geometry" />
        </mxCell>
        <mxCell id="svZd6xKUhVE3Qj8_Ypbx-106" value="" style="shape=partialRectangle;connectable=0;fillColor=none;top=0;left=0;bottom=0;right=0;editable=1;overflow=hidden;whiteSpace=wrap;html=1;fontSize=18;" vertex="1" parent="svZd6xKUhVE3Qj8_Ypbx-105">
          <mxGeometry width="40" height="66" as="geometry">
            <mxRectangle width="40" height="66" as="alternateBounds" />
          </mxGeometry>
        </mxCell>
        <mxCell id="svZd6xKUhVE3Qj8_Ypbx-107" value="order_number" style="shape=partialRectangle;connectable=0;fillColor=none;top=0;left=0;bottom=0;right=0;align=left;spacingLeft=6;overflow=hidden;whiteSpace=wrap;html=1;fontSize=18;" vertex="1" parent="svZd6xKUhVE3Qj8_Ypbx-105">
          <mxGeometry x="40" width="290" height="66" as="geometry">
            <mxRectangle width="290" height="66" as="alternateBounds" />
          </mxGeometry>
        </mxCell>
        <mxCell id="svZd6xKUhVE3Qj8_Ypbx-108" value="" style="shape=tableRow;horizontal=0;startSize=0;swimlaneHead=0;swimlaneBody=0;fillColor=none;collapsible=0;dropTarget=0;points=[[0,0.5],[1,0.5]];portConstraint=eastwest;top=0;left=0;right=0;bottom=0;fontSize=18;" vertex="1" parent="svZd6xKUhVE3Qj8_Ypbx-101">
          <mxGeometry y="96" width="330" height="66" as="geometry" />
        </mxCell>
        <mxCell id="svZd6xKUhVE3Qj8_Ypbx-109" value="FK1" style="shape=partialRectangle;connectable=0;fillColor=none;top=0;left=0;bottom=0;right=0;editable=1;overflow=hidden;whiteSpace=wrap;html=1;fontSize=18;" vertex="1" parent="svZd6xKUhVE3Qj8_Ypbx-108">
          <mxGeometry width="40" height="66" as="geometry">
            <mxRectangle width="40" height="66" as="alternateBounds" />
          </mxGeometry>
        </mxCell>
        <mxCell id="svZd6xKUhVE3Qj8_Ypbx-110" value="product_key" style="shape=partialRectangle;connectable=0;fillColor=none;top=0;left=0;bottom=0;right=0;align=left;spacingLeft=6;overflow=hidden;whiteSpace=wrap;html=1;fontSize=18;" vertex="1" parent="svZd6xKUhVE3Qj8_Ypbx-108">
          <mxGeometry x="40" width="290" height="66" as="geometry">
            <mxRectangle width="290" height="66" as="alternateBounds" />
          </mxGeometry>
        </mxCell>
        <mxCell id="svZd6xKUhVE3Qj8_Ypbx-111" value="" style="shape=tableRow;horizontal=0;startSize=0;swimlaneHead=0;swimlaneBody=0;fillColor=none;collapsible=0;dropTarget=0;points=[[0,0.5],[1,0.5]];portConstraint=eastwest;top=0;left=0;right=0;bottom=0;fontSize=18;" vertex="1" parent="svZd6xKUhVE3Qj8_Ypbx-101">
          <mxGeometry y="162" width="330" height="66" as="geometry" />
        </mxCell>
        <mxCell id="svZd6xKUhVE3Qj8_Ypbx-112" value="FK2" style="shape=partialRectangle;connectable=0;fillColor=none;top=0;left=0;bottom=0;right=0;editable=1;overflow=hidden;whiteSpace=wrap;html=1;fontSize=18;" vertex="1" parent="svZd6xKUhVE3Qj8_Ypbx-111">
          <mxGeometry width="40" height="66" as="geometry">
            <mxRectangle width="40" height="66" as="alternateBounds" />
          </mxGeometry>
        </mxCell>
        <mxCell id="svZd6xKUhVE3Qj8_Ypbx-113" value="customer_key" style="shape=partialRectangle;connectable=0;fillColor=none;top=0;left=0;bottom=0;right=0;align=left;spacingLeft=6;overflow=hidden;whiteSpace=wrap;html=1;fontSize=18;" vertex="1" parent="svZd6xKUhVE3Qj8_Ypbx-111">
          <mxGeometry x="40" width="290" height="66" as="geometry">
            <mxRectangle width="290" height="66" as="alternateBounds" />
          </mxGeometry>
        </mxCell>
        <mxCell id="svZd6xKUhVE3Qj8_Ypbx-114" value="" style="shape=tableRow;horizontal=0;startSize=0;swimlaneHead=0;swimlaneBody=0;fillColor=none;collapsible=0;dropTarget=0;points=[[0,0.5],[1,0.5]];portConstraint=eastwest;top=0;left=0;right=0;bottom=0;fontSize=18;" vertex="1" parent="svZd6xKUhVE3Qj8_Ypbx-101">
          <mxGeometry y="228" width="330" height="66" as="geometry" />
        </mxCell>
        <mxCell id="svZd6xKUhVE3Qj8_Ypbx-115" value="" style="shape=partialRectangle;connectable=0;fillColor=none;top=0;left=0;bottom=0;right=0;editable=1;overflow=hidden;whiteSpace=wrap;html=1;fontSize=18;" vertex="1" parent="svZd6xKUhVE3Qj8_Ypbx-114">
          <mxGeometry width="40" height="66" as="geometry">
            <mxRectangle width="40" height="66" as="alternateBounds" />
          </mxGeometry>
        </mxCell>
        <mxCell id="svZd6xKUhVE3Qj8_Ypbx-116" value="order_date" style="shape=partialRectangle;connectable=0;fillColor=none;top=0;left=0;bottom=0;right=0;align=left;spacingLeft=6;overflow=hidden;whiteSpace=wrap;html=1;fontSize=18;" vertex="1" parent="svZd6xKUhVE3Qj8_Ypbx-114">
          <mxGeometry x="40" width="290" height="66" as="geometry">
            <mxRectangle width="290" height="66" as="alternateBounds" />
          </mxGeometry>
        </mxCell>
        <mxCell id="svZd6xKUhVE3Qj8_Ypbx-117" value="" style="shape=tableRow;horizontal=0;startSize=0;swimlaneHead=0;swimlaneBody=0;fillColor=none;collapsible=0;dropTarget=0;points=[[0,0.5],[1,0.5]];portConstraint=eastwest;top=0;left=0;right=0;bottom=0;fontSize=18;" vertex="1" parent="svZd6xKUhVE3Qj8_Ypbx-101">
          <mxGeometry y="294" width="330" height="66" as="geometry" />
        </mxCell>
        <mxCell id="svZd6xKUhVE3Qj8_Ypbx-118" value="" style="shape=partialRectangle;connectable=0;fillColor=none;top=0;left=0;bottom=0;right=0;editable=1;overflow=hidden;whiteSpace=wrap;html=1;fontSize=18;" vertex="1" parent="svZd6xKUhVE3Qj8_Ypbx-117">
          <mxGeometry width="40" height="66" as="geometry">
            <mxRectangle width="40" height="66" as="alternateBounds" />
          </mxGeometry>
        </mxCell>
        <mxCell id="svZd6xKUhVE3Qj8_Ypbx-119" value="shipping_date" style="shape=partialRectangle;connectable=0;fillColor=none;top=0;left=0;bottom=0;right=0;align=left;spacingLeft=6;overflow=hidden;whiteSpace=wrap;html=1;fontSize=18;" vertex="1" parent="svZd6xKUhVE3Qj8_Ypbx-117">
          <mxGeometry x="40" width="290" height="66" as="geometry">
            <mxRectangle width="290" height="66" as="alternateBounds" />
          </mxGeometry>
        </mxCell>
        <mxCell id="svZd6xKUhVE3Qj8_Ypbx-120" value="" style="shape=tableRow;horizontal=0;startSize=0;swimlaneHead=0;swimlaneBody=0;fillColor=none;collapsible=0;dropTarget=0;points=[[0,0.5],[1,0.5]];portConstraint=eastwest;top=0;left=0;right=0;bottom=0;fontSize=18;" vertex="1" parent="svZd6xKUhVE3Qj8_Ypbx-101">
          <mxGeometry y="360" width="330" height="66" as="geometry" />
        </mxCell>
        <mxCell id="svZd6xKUhVE3Qj8_Ypbx-121" value="" style="shape=partialRectangle;connectable=0;fillColor=none;top=0;left=0;bottom=0;right=0;editable=1;overflow=hidden;whiteSpace=wrap;html=1;fontSize=18;" vertex="1" parent="svZd6xKUhVE3Qj8_Ypbx-120">
          <mxGeometry width="40" height="66" as="geometry">
            <mxRectangle width="40" height="66" as="alternateBounds" />
          </mxGeometry>
        </mxCell>
        <mxCell id="svZd6xKUhVE3Qj8_Ypbx-122" value="due_date" style="shape=partialRectangle;connectable=0;fillColor=none;top=0;left=0;bottom=0;right=0;align=left;spacingLeft=6;overflow=hidden;whiteSpace=wrap;html=1;fontSize=18;" vertex="1" parent="svZd6xKUhVE3Qj8_Ypbx-120">
          <mxGeometry x="40" width="290" height="66" as="geometry">
            <mxRectangle width="290" height="66" as="alternateBounds" />
          </mxGeometry>
        </mxCell>
        <mxCell id="svZd6xKUhVE3Qj8_Ypbx-123" value="" style="shape=tableRow;horizontal=0;startSize=0;swimlaneHead=0;swimlaneBody=0;fillColor=none;collapsible=0;dropTarget=0;points=[[0,0.5],[1,0.5]];portConstraint=eastwest;top=0;left=0;right=0;bottom=0;fontSize=18;" vertex="1" parent="svZd6xKUhVE3Qj8_Ypbx-101">
          <mxGeometry y="426" width="330" height="66" as="geometry" />
        </mxCell>
        <mxCell id="svZd6xKUhVE3Qj8_Ypbx-124" value="" style="shape=partialRectangle;connectable=0;fillColor=none;top=0;left=0;bottom=0;right=0;editable=1;overflow=hidden;whiteSpace=wrap;html=1;fontSize=18;" vertex="1" parent="svZd6xKUhVE3Qj8_Ypbx-123">
          <mxGeometry width="40" height="66" as="geometry">
            <mxRectangle width="40" height="66" as="alternateBounds" />
          </mxGeometry>
        </mxCell>
        <mxCell id="svZd6xKUhVE3Qj8_Ypbx-125" value="sales_amount" style="shape=partialRectangle;connectable=0;fillColor=none;top=0;left=0;bottom=0;right=0;align=left;spacingLeft=6;overflow=hidden;whiteSpace=wrap;html=1;fontSize=18;" vertex="1" parent="svZd6xKUhVE3Qj8_Ypbx-123">
          <mxGeometry x="40" width="290" height="66" as="geometry">
            <mxRectangle width="290" height="66" as="alternateBounds" />
          </mxGeometry>
        </mxCell>
        <mxCell id="svZd6xKUhVE3Qj8_Ypbx-126" value="" style="shape=tableRow;horizontal=0;startSize=0;swimlaneHead=0;swimlaneBody=0;fillColor=none;collapsible=0;dropTarget=0;points=[[0,0.5],[1,0.5]];portConstraint=eastwest;top=0;left=0;right=0;bottom=0;fontSize=18;" vertex="1" parent="svZd6xKUhVE3Qj8_Ypbx-101">
          <mxGeometry y="492" width="330" height="66" as="geometry" />
        </mxCell>
        <mxCell id="svZd6xKUhVE3Qj8_Ypbx-127" value="" style="shape=partialRectangle;connectable=0;fillColor=none;top=0;left=0;bottom=0;right=0;editable=1;overflow=hidden;whiteSpace=wrap;html=1;fontSize=18;" vertex="1" parent="svZd6xKUhVE3Qj8_Ypbx-126">
          <mxGeometry width="40" height="66" as="geometry">
            <mxRectangle width="40" height="66" as="alternateBounds" />
          </mxGeometry>
        </mxCell>
        <mxCell id="svZd6xKUhVE3Qj8_Ypbx-128" value="quantity" style="shape=partialRectangle;connectable=0;fillColor=none;top=0;left=0;bottom=0;right=0;align=left;spacingLeft=6;overflow=hidden;whiteSpace=wrap;html=1;fontSize=18;" vertex="1" parent="svZd6xKUhVE3Qj8_Ypbx-126">
          <mxGeometry x="40" width="290" height="66" as="geometry">
            <mxRectangle width="290" height="66" as="alternateBounds" />
          </mxGeometry>
        </mxCell>
        <mxCell id="svZd6xKUhVE3Qj8_Ypbx-129" value="" style="shape=tableRow;horizontal=0;startSize=0;swimlaneHead=0;swimlaneBody=0;fillColor=none;collapsible=0;dropTarget=0;points=[[0,0.5],[1,0.5]];portConstraint=eastwest;top=0;left=0;right=0;bottom=0;fontSize=18;" vertex="1" parent="svZd6xKUhVE3Qj8_Ypbx-101">
          <mxGeometry y="558" width="330" height="66" as="geometry" />
        </mxCell>
        <mxCell id="svZd6xKUhVE3Qj8_Ypbx-130" value="" style="shape=partialRectangle;connectable=0;fillColor=none;top=0;left=0;bottom=0;right=0;editable=1;overflow=hidden;whiteSpace=wrap;html=1;fontSize=18;" vertex="1" parent="svZd6xKUhVE3Qj8_Ypbx-129">
          <mxGeometry width="40" height="66" as="geometry">
            <mxRectangle width="40" height="66" as="alternateBounds" />
          </mxGeometry>
        </mxCell>
        <mxCell id="svZd6xKUhVE3Qj8_Ypbx-131" value="price" style="shape=partialRectangle;connectable=0;fillColor=none;top=0;left=0;bottom=0;right=0;align=left;spacingLeft=6;overflow=hidden;whiteSpace=wrap;html=1;fontSize=18;" vertex="1" parent="svZd6xKUhVE3Qj8_Ypbx-129">
          <mxGeometry x="40" width="290" height="66" as="geometry">
            <mxRectangle width="290" height="66" as="alternateBounds" />
          </mxGeometry>
        </mxCell>
        <mxCell id="svZd6xKUhVE3Qj8_Ypbx-135" value="" style="edgeStyle=entityRelationEdgeStyle;fontSize=12;html=1;endArrow=ERzeroToMany;startArrow=ERmandOne;rounded=0;exitX=1;exitY=0.5;exitDx=0;exitDy=0;" edge="1" parent="1" source="svZd6xKUhVE3Qj8_Ypbx-3">
          <mxGeometry width="100" height="100" relative="1" as="geometry">
            <mxPoint x="560" y="330" as="sourcePoint" />
            <mxPoint x="680" y="330" as="targetPoint" />
            <Array as="points">
              <mxPoint x="500" y="200" />
            </Array>
          </mxGeometry>
        </mxCell>
        <mxCell id="svZd6xKUhVE3Qj8_Ypbx-136" value="" style="edgeStyle=entityRelationEdgeStyle;fontSize=12;html=1;endArrow=ERzeroToMany;startArrow=ERmandOne;rounded=0;entryX=1;entryY=0.5;entryDx=0;entryDy=0;exitX=0;exitY=0.5;exitDx=0;exitDy=0;" edge="1" parent="1" source="svZd6xKUhVE3Qj8_Ypbx-67" target="svZd6xKUhVE3Qj8_Ypbx-111">
          <mxGeometry width="100" height="100" relative="1" as="geometry">
            <mxPoint x="1110" y="300" as="sourcePoint" />
            <mxPoint x="1210" y="200" as="targetPoint" />
            <Array as="points">
              <mxPoint x="1040" y="290" />
            </Array>
          </mxGeometry>
        </mxCell>
        <mxCell id="svZd6xKUhVE3Qj8_Ypbx-137" value="&lt;h1 style=&quot;margin-top: 0px;&quot;&gt;&lt;font style=&quot;font-size: 18px;&quot;&gt;Sales Calculation&lt;/font&gt;&lt;/h1&gt;&lt;p&gt;&lt;font style=&quot;font-size: 18px;&quot;&gt;Sales = Quanity * price&lt;/font&gt;&lt;/p&gt;" style="text;html=1;whiteSpace=wrap;overflow=hidden;rounded=0;" vertex="1" parent="1">
          <mxGeometry x="850" y="790" width="240" height="120" as="geometry" />
        </mxCell>
        <mxCell id="svZd6xKUhVE3Qj8_Ypbx-138" value="" style="endArrow=none;dashed=1;html=1;rounded=0;entryX=0.436;entryY=0.955;entryDx=0;entryDy=0;entryPerimeter=0;" edge="1" parent="1" target="svZd6xKUhVE3Qj8_Ypbx-123">
          <mxGeometry width="50" height="50" relative="1" as="geometry">
            <mxPoint x="930" y="780" as="sourcePoint" />
            <mxPoint x="860" y="410" as="targetPoint" />
            <Array as="points">
              <mxPoint x="930" y="780" />
            </Array>
          </mxGeometry>
        </mxCell>
      </root>
    </mxGraphModel>
  </diagram>
</mxfile>
